<svg xmlns="http://www.w3.org/2000/svg" xmlns:xlink="http://www.w3.org/1999/xlink" width="200" zoomAndPan="magnify" viewBox="0 0 150 149.999998" height="200" preserveAspectRatio="xMidYMid meet" version="1.0"><defs><clipPath id="135b86518d"><path d="M 52.066406 111.011719 L 77.566406 111.011719 L 77.566406 137.261719 L 52.066406 137.261719 Z M 52.066406 111.011719 " clip-rule="nonzero"/></clipPath><clipPath id="6cecfd592a"><path d="M 27.136719 55 L 98 55 L 98 150 L 27.136719 150 Z M 27.136719 55 " clip-rule="nonzero"/></clipPath><clipPath id="c4efc2cad9"><path d="M 60 0 L 123.128906 0 L 123.128906 96 L 60 96 Z M 60 0 " clip-rule="nonzero"/></clipPath></defs><rect x="-15" width="180" fill="#ffffff" y="-15" height="179.999997" fill-opacity="1"/><rect x="-15" width="180" fill="#ffffff" y="-15" height="179.999997" fill-opacity="1"/><g clip-path="url(#135b86518d)"><path fill="#cf5a73" d="M 76.851562 120.671875 C 76.609375 119.722656 76.292969 119.015625 75.890625 118.128906 L 75.089844 116.742188 C 74.847656 116.441406 74.910156 116.617188 74.667969 116.191406 C 74.488281 115.855469 74.265625 115.710938 74.054688 115.492188 C 73.835938 115.136719 73.625 114.824219 73.507812 114.691406 C 73.433594 114.597656 73.316406 114.472656 73.234375 114.34375 L 72.863281 113.9375 L 71.125 112.5625 C 71.199219 112.804688 71.261719 113.085938 71.21875 113.335938 C 71.136719 113.292969 71.0625 113.261719 70.988281 113.230469 C 70.839844 112.667969 71.070312 112.636719 70.355469 112.167969 C 69.933594 111.894531 69.34375 111.6875 68.867188 111.550781 C 67.589844 111.175781 65.660156 111.019531 64.300781 111.261719 C 64.152344 111.28125 63.722656 111.324219 63.4375 111.394531 L 63.035156 111.480469 C 63.015625 111.480469 62.992188 111.488281 62.972656 111.488281 C 61.757812 111.71875 60.609375 111.988281 59.480469 112.480469 L 57.761719 113.40625 C 57.65625 113.46875 57.582031 113.480469 57.46875 113.574219 C 57.402344 113.625 57.265625 113.761719 57.183594 113.835938 L 56.941406 114.074219 C 56.023438 114.835938 56.140625 114.773438 55.378906 115.636719 L 55.0625 115.867188 C 54.988281 115.949219 54.9375 116.042969 54.875 116.148438 C 54.273438 117.003906 53.976562 117.859375 53.4375 118.691406 C 53.34375 118.847656 53.4375 118.648438 53.324219 118.890625 C 53.25 119.046875 53.1875 119.214844 53.113281 119.371094 L 52.796875 120.140625 C 52.636719 120.527344 52.417969 121.007812 52.300781 121.484375 C 52.238281 121.558594 52.195312 121.664062 52.195312 121.765625 L 52.195312 122.246094 C 52.195312 122.328125 52.214844 122.382812 52.246094 122.445312 C 52.246094 122.496094 52.246094 122.546875 52.257812 122.601562 C 52.269531 122.601562 52.269531 122.601562 52.269531 122.601562 C 52.277344 122.609375 52.269531 122.621094 52.257812 122.632812 C 52.269531 122.664062 52.269531 122.695312 52.289062 122.726562 C 52.300781 122.777344 52.3125 122.808594 52.320312 122.851562 C 52.320312 122.890625 52.320312 122.933594 52.34375 122.976562 C 52.332031 123.039062 52.320312 123.089844 52.320312 123.152344 C 52.3125 123.238281 52.289062 123.320312 52.277344 123.402344 C 52.207031 123.808594 52.246094 124.363281 52.195312 124.707031 L 52.109375 125.71875 C 52.066406 126.988281 52.417969 127.84375 52.921875 128.949219 L 53.957031 130.585938 C 54.0625 130.75 54.113281 130.824219 54.207031 130.980469 C 54.429688 131.367188 54.851562 131.804688 55.191406 132.097656 C 55.601562 132.449219 55.527344 132.628906 56.507812 133.417969 C 57.488281 134.210938 57.71875 134.410156 58.847656 135.078125 C 59.082031 135.210938 59.335938 135.367188 59.554688 135.484375 C 59.609375 135.515625 59.671875 135.546875 59.714844 135.566406 C 60.136719 135.773438 60.714844 135.933594 61.105469 136.183594 C 61.167969 136.222656 61.222656 136.253906 61.265625 136.277344 C 61.328125 136.308594 61.378906 136.328125 61.453125 136.339844 C 61.527344 136.347656 61.601562 136.359375 61.726562 136.378906 C 61.695312 136.390625 61.6875 136.402344 61.6875 136.410156 C 61.738281 136.578125 64.183594 137.152344 64.46875 137.183594 C 64.996094 137.222656 65.597656 137.253906 66.136719 137.109375 C 66.410156 137.035156 66.683594 137.027344 66.925781 136.941406 L 68.5 136.222656 L 69.953125 135.566406 L 70.542969 135.296875 C 70.765625 135.117188 70.640625 135.253906 70.859375 135.128906 L 72.886719 133.542969 C 72.980469 133.441406 72.894531 133.523438 73 133.417969 C 73.351562 133.097656 73.667969 132.824219 73.917969 132.398438 C 74.171875 131.972656 74.476562 131.824219 74.71875 131.355469 L 74.929688 131 C 75.246094 130.523438 75.425781 129.867188 75.765625 129.394531 L 76.25 128.675781 C 77.179688 127.417969 77.167969 126.039062 77.410156 124.558594 L 77.496094 123.902344 C 77.566406 123.039062 77.050781 121.445312 76.851562 120.671875 Z M 53.152344 126.9375 C 53.152344 126.894531 53.195312 126.90625 53.226562 126.894531 C 53.226562 126.9375 53.1875 126.925781 53.152344 126.9375 Z M 53.574219 123.976562 C 53.679688 123.976562 53.722656 124.027344 53.734375 124.132812 C 53.597656 124.152344 53.585938 124.058594 53.574219 123.976562 Z M 53.722656 121.234375 C 53.714844 121.164062 53.902344 121.183594 53.839844 121.277344 C 53.820312 121.277344 53.785156 121.277344 53.765625 121.277344 C 53.777344 121.246094 53.753906 121.234375 53.722656 121.234375 Z M 53.851562 125.832031 C 53.871094 125.851562 53.820312 125.882812 53.808594 125.875 C 53.785156 125.851562 53.839844 125.820312 53.851562 125.832031 Z M 53.882812 130.085938 C 53.859375 130.085938 53.828125 130.085938 53.808594 130.085938 C 53.808594 130.0625 53.808594 130.03125 53.808594 130.011719 C 53.828125 130.011719 53.859375 130.011719 53.882812 130.011719 C 53.882812 130.03125 53.882812 130.0625 53.882812 130.085938 Z M 53.925781 119.003906 C 53.925781 118.964844 53.964844 118.972656 53.996094 118.964844 C 53.996094 118.996094 53.957031 118.984375 53.925781 119.003906 Z M 54.039062 122.152344 C 54.039062 122.109375 54.082031 122.121094 54.113281 122.109375 C 54.113281 122.152344 54.070312 122.140625 54.039062 122.152344 Z M 54.199219 125.875 C 54.355469 125.84375 54.386719 125.925781 54.386719 126.0625 C 54.230469 126.09375 54.199219 126.007812 54.199219 125.875 Z M 54.417969 124.996094 C 54.410156 125.050781 54.355469 125.058594 54.347656 125.113281 C 54.304688 125.101562 54.3125 125.039062 54.304688 124.996094 C 54.347656 124.996094 54.378906 124.996094 54.417969 124.996094 Z M 54.347656 123.058594 C 54.355469 123.019531 54.386719 123.039062 54.386719 123.058594 C 54.378906 123.101562 54.347656 123.082031 54.347656 123.058594 Z M 54.273438 120.976562 C 54.25 120.953125 54.304688 120.921875 54.3125 120.933594 C 54.335938 120.953125 54.28125 120.984375 54.273438 120.976562 Z M 54.230469 119.152344 C 54.242188 119.109375 54.273438 119.128906 54.273438 119.152344 C 54.261719 119.191406 54.230469 119.171875 54.230469 119.152344 Z M 54.386719 125.375 C 54.398438 125.320312 54.460938 125.332031 54.460938 125.375 C 54.429688 125.40625 54.398438 125.425781 54.386719 125.375 Z M 54.460938 121.726562 C 54.441406 121.726562 54.410156 121.726562 54.386719 121.726562 C 54.386719 121.703125 54.386719 121.671875 54.386719 121.652344 C 54.410156 121.652344 54.441406 121.652344 54.460938 121.652344 C 54.460938 121.683594 54.460938 121.703125 54.460938 121.726562 Z M 54.492188 124.050781 C 54.472656 124.027344 54.523438 123.996094 54.535156 124.007812 C 54.558594 124.027344 54.515625 124.058594 54.492188 124.050781 Z M 54.695312 123.402344 C 54.671875 123.402344 54.640625 123.402344 54.621094 123.402344 C 54.597656 123.371094 54.578125 123.339844 54.578125 123.289062 C 54.683594 123.289062 54.664062 123.226562 54.734375 123.289062 C 54.714844 123.320312 54.695312 123.351562 54.695312 123.402344 Z M 55.074219 125.039062 C 55.050781 125.019531 55.105469 124.988281 55.117188 124.996094 C 55.136719 125.019531 55.085938 125.050781 55.074219 125.039062 Z M 55.148438 121.089844 C 55.15625 121.046875 55.191406 121.070312 55.191406 121.089844 C 55.191406 121.132812 55.15625 121.109375 55.148438 121.089844 Z M 55.453125 123.820312 C 55.433594 123.800781 55.484375 123.769531 55.496094 123.777344 C 55.515625 123.800781 55.472656 123.832031 55.453125 123.820312 Z M 55.378906 118.179688 C 55.378906 118.160156 55.378906 118.128906 55.378906 118.109375 C 55.402344 118.109375 55.433594 118.109375 55.453125 118.109375 C 55.453125 118.128906 55.453125 118.160156 55.453125 118.179688 C 55.433594 118.179688 55.402344 118.179688 55.378906 118.179688 Z M 55.496094 122.601562 C 55.527344 122.546875 55.578125 122.539062 55.652344 122.527344 C 55.683594 122.640625 55.558594 122.589844 55.496094 122.601562 Z M 55.726562 120.328125 C 55.75 120.347656 55.707031 120.371094 55.683594 120.371094 C 55.664062 120.347656 55.71875 120.316406 55.726562 120.328125 Z M 55.695312 127.082031 C 55.675781 127.070312 55.71875 127.039062 55.738281 127.039062 C 55.757812 127.0625 55.707031 127.09375 55.695312 127.082031 Z M 55.769531 132.023438 C 55.832031 132.011719 55.832031 132.066406 55.886719 132.066406 C 55.894531 132.136719 55.707031 132.117188 55.769531 132.023438 Z M 55.8125 120.359375 C 55.84375 120.371094 55.84375 120.402344 55.886719 120.402344 C 55.875 120.433594 55.84375 120.441406 55.84375 120.472656 C 55.8125 120.464844 55.8125 120.433594 55.769531 120.433594 C 55.78125 120.402344 55.8125 120.402344 55.8125 120.359375 Z M 55.769531 117.816406 C 55.769531 117.773438 55.769531 117.742188 55.769531 117.703125 C 55.886719 117.648438 55.886719 117.878906 55.769531 117.816406 Z M 55.886719 120.515625 C 56.066406 120.535156 55.855469 120.746094 55.886719 120.515625 Z M 55.410156 116.199219 L 54.9375 116.804688 C 54.207031 117.941406 53.859375 119.128906 53.628906 119.566406 C 53.511719 119.796875 53.46875 119.828125 53.375 120.089844 C 53.132812 120.722656 52.765625 121.320312 52.765625 122.121094 C 52.773438 123.632812 52.730469 122.390625 52.605469 123.050781 C 52.320312 122.546875 52.835938 120.316406 53.144531 119.546875 L 54.472656 117.054688 C 54.484375 117.046875 54.503906 117.023438 54.515625 117.015625 C 54.589844 116.921875 54.714844 116.835938 54.640625 116.679688 L 54.945312 116.429688 C 55.148438 116.128906 55.769531 115.449219 55.992188 115.335938 C 55.855469 115.679688 55.621094 115.949219 55.410156 116.199219 Z M 56 120.472656 C 55.980469 120.453125 56.035156 120.433594 56.042969 120.433594 C 56.066406 120.453125 56.011719 120.484375 56 120.472656 Z M 56.148438 126.707031 C 56.148438 126.6875 56.148438 126.65625 56.148438 126.632812 C 56.234375 126.613281 56.277344 126.632812 56.265625 126.707031 C 56.222656 126.707031 56.191406 126.707031 56.148438 126.707031 Z M 56.035156 115.691406 C 56.128906 115.667969 56.179688 115.628906 56.308594 115.648438 C 56.316406 115.804688 56.042969 115.867188 56.035156 115.691406 Z M 70.144531 124.839844 C 70.132812 124.894531 70.101562 124.863281 70.101562 124.839844 C 70.113281 124.800781 70.144531 124.820312 70.144531 124.839844 Z M 69.835938 113.292969 C 69.859375 113.3125 69.804688 113.34375 69.796875 113.335938 C 69.773438 113.3125 69.828125 113.28125 69.835938 113.292969 Z M 69.5625 128.761719 C 69.585938 128.761719 69.617188 128.761719 69.636719 128.761719 C 69.636719 128.78125 69.636719 128.8125 69.636719 128.832031 C 69.617188 128.832031 69.585938 128.832031 69.5625 128.832031 C 69.5625 128.8125 69.5625 128.78125 69.5625 128.761719 Z M 69.34375 122.371094 C 69.351562 122.390625 69.3125 122.421875 69.300781 122.414062 C 69.277344 122.390625 69.332031 122.359375 69.34375 122.371094 Z M 69.226562 124.582031 C 69.207031 124.621094 69.171875 124.652344 69.109375 124.652344 C 69.089844 124.582031 69.164062 124.582031 69.226562 124.582031 Z M 69.183594 134.117188 C 69.183594 134.140625 69.183594 134.160156 69.183594 134.191406 C 69.164062 134.191406 69.132812 134.191406 69.109375 134.191406 C 69.109375 134.171875 69.109375 134.140625 69.109375 134.117188 C 69.132812 134.117188 69.164062 134.117188 69.183594 134.117188 Z M 68.996094 116.523438 C 69.003906 116.480469 69.101562 116.492188 69.109375 116.523438 C 69.140625 116.609375 68.960938 116.617188 68.996094 116.523438 Z M 68.921875 126.476562 C 68.941406 126.5 68.890625 126.53125 68.878906 126.519531 C 68.855469 126.5 68.898438 126.46875 68.921875 126.476562 Z M 68.6875 126.894531 C 68.699219 126.914062 68.65625 126.945312 68.644531 126.9375 C 68.625 126.914062 68.679688 126.882812 68.6875 126.894531 Z M 68.644531 123.707031 C 68.488281 123.726562 68.679688 123.601562 68.53125 123.589844 C 68.574219 123.476562 68.65625 123.644531 68.644531 123.707031 Z M 68.605469 122.640625 C 68.582031 122.640625 68.550781 122.640625 68.53125 122.640625 C 68.53125 122.621094 68.53125 122.589844 68.53125 122.570312 C 68.550781 122.570312 68.582031 122.570312 68.605469 122.570312 C 68.605469 122.589844 68.605469 122.621094 68.605469 122.640625 Z M 68.53125 119.910156 C 68.550781 119.921875 68.5 119.953125 68.488281 119.953125 C 68.46875 119.933594 68.519531 119.902344 68.53125 119.910156 Z M 68.257812 112.804688 C 68.394531 112.710938 68.171875 112.929688 68.257812 112.804688 Z M 68.191406 132.105469 C 68.140625 132.085938 68.160156 132.003906 68.152344 131.949219 C 68.296875 131.941406 68.160156 132.035156 68.191406 132.105469 Z M 67.949219 128.261719 C 67.980469 128.167969 68.078125 128.136719 68.222656 128.144531 C 68.191406 128.238281 68.097656 128.28125 67.949219 128.261719 Z M 68.066406 134.910156 C 68.066406 134.953125 68.023438 134.941406 67.992188 134.953125 C 67.992188 134.910156 68.035156 134.921875 68.066406 134.910156 Z M 67.917969 121.007812 C 67.886719 121.007812 67.867188 121.007812 67.84375 121.007812 C 67.84375 120.976562 67.824219 120.964844 67.800781 120.964844 C 67.792969 120.890625 67.980469 120.914062 67.917969 121.007812 Z M 67.992188 123.863281 C 68.140625 124.050781 67.792969 124.007812 67.992188 123.863281 Z M 67.71875 119.753906 C 67.738281 119.714844 67.824219 119.722656 67.835938 119.753906 C 67.867188 119.839844 67.695312 119.839844 67.71875 119.753906 Z M 67.792969 125.570312 C 67.792969 125.59375 67.792969 125.625 67.792969 125.644531 C 67.769531 125.644531 67.738281 125.644531 67.71875 125.644531 C 67.71875 125.613281 67.71875 125.59375 67.71875 125.570312 C 67.738281 125.570312 67.769531 125.570312 67.792969 125.570312 Z M 67.949219 131.261719 C 67.886719 131.261719 67.875 131.3125 67.800781 131.304688 C 67.78125 131.273438 67.761719 131.242188 67.761719 131.1875 C 67.8125 131.125 67.980469 131.125 67.949219 131.261719 Z M 68.183594 120.472656 C 68.203125 120.496094 68.160156 120.527344 68.140625 120.515625 C 68.117188 120.496094 68.171875 120.464844 68.183594 120.472656 Z M 67.949219 114.09375 C 67.972656 114.117188 67.929688 114.148438 67.90625 114.136719 C 67.886719 114.117188 67.941406 114.085938 67.949219 114.09375 Z M 67.6875 114.136719 C 67.730469 114.105469 67.792969 114.085938 67.875 114.09375 C 67.824219 114.21875 67.8125 114.386719 68.035156 114.324219 C 67.941406 114.492188 67.589844 114.398438 67.6875 114.136719 Z M 67.71875 130.3125 C 67.6875 130.335938 67.65625 130.355469 67.644531 130.3125 C 67.65625 130.273438 67.71875 130.28125 67.71875 130.3125 Z M 67.644531 112.429688 C 67.675781 112.511719 67.507812 112.511719 67.527344 112.429688 C 67.539062 112.386719 67.632812 112.398438 67.644531 112.429688 Z M 67.453125 118.847656 C 67.484375 118.777344 67.519531 118.714844 67.527344 118.617188 C 67.664062 118.585938 67.589844 118.902344 67.453125 118.847656 Z M 67.453125 112.15625 C 67.445312 112.199219 67.414062 112.175781 67.414062 112.15625 C 67.421875 112.113281 67.453125 112.136719 67.453125 112.15625 Z M 67.074219 113.605469 C 67.097656 113.605469 67.128906 113.605469 67.148438 113.605469 C 67.148438 113.625 67.148438 113.65625 67.148438 113.679688 C 67.128906 113.679688 67.097656 113.679688 67.074219 113.679688 C 67.074219 113.65625 67.074219 113.625 67.074219 113.605469 Z M 66.84375 127.925781 C 66.800781 127.949219 66.769531 127.96875 66.769531 127.925781 C 66.78125 127.875 66.84375 127.886719 66.84375 127.925781 Z M 66.757812 125.488281 C 66.675781 125.5 66.632812 125.457031 66.640625 125.375 C 66.683594 125.414062 66.789062 125.394531 66.757812 125.488281 Z M 66.683594 129.75 C 66.8125 129.65625 66.589844 129.875 66.683594 129.75 Z M 66.496094 126.40625 C 66.496094 126.289062 66.675781 126.3125 66.652344 126.445312 C 66.609375 126.414062 66.558594 126.40625 66.496094 126.40625 Z M 66.601562 134.765625 C 66.570312 134.753906 66.570312 134.722656 66.527344 134.722656 C 66.527344 134.703125 66.527344 134.671875 66.527344 134.648438 C 66.609375 134.628906 66.601562 134.703125 66.601562 134.765625 Z M 66.640625 126.25 C 66.546875 126.25 66.496094 126.195312 66.484375 126.09375 C 66.578125 126.113281 66.675781 126.125 66.640625 126.25 Z M 66.609375 119.496094 C 66.609375 119.453125 66.652344 119.464844 66.683594 119.453125 C 66.683594 119.484375 66.640625 119.484375 66.609375 119.496094 Z M 66.683594 117.316406 C 66.664062 117.316406 66.632812 117.316406 66.609375 117.316406 C 66.609375 117.296875 66.609375 117.265625 66.609375 117.242188 C 66.632812 117.242188 66.664062 117.242188 66.683594 117.242188 C 66.683594 117.273438 66.683594 117.296875 66.683594 117.316406 Z M 66.640625 113 C 66.558594 113.011719 66.496094 112.992188 66.453125 112.960938 C 66.453125 112.84375 66.683594 112.855469 66.640625 113 Z M 66.304688 113.03125 C 66.285156 113.085938 66.261719 113.03125 66.230469 113.03125 C 66.242188 112.980469 66.304688 112.992188 66.304688 113.03125 Z M 66.21875 121.464844 C 66.1875 121.484375 66.15625 121.507812 66.148438 121.464844 C 66.15625 121.414062 66.21875 121.421875 66.21875 121.464844 Z M 66.074219 120.703125 C 66.199219 120.609375 65.976562 120.828125 66.074219 120.703125 Z M 65.957031 131.5625 C 65.9375 131.554688 65.976562 131.523438 66 131.523438 C 66.019531 131.542969 65.96875 131.574219 65.957031 131.5625 Z M 65.882812 123.257812 C 65.9375 123.121094 66.0625 123.300781 65.957031 123.332031 C 65.9375 123.332031 65.871094 123.277344 65.882812 123.257812 Z M 65.871094 113.40625 C 65.871094 113.460938 65.839844 113.429688 65.832031 113.40625 C 65.839844 113.367188 65.871094 113.386719 65.871094 113.40625 Z M 65.839844 113.292969 C 65.863281 113.3125 65.808594 113.34375 65.796875 113.335938 C 65.777344 113.3125 65.832031 113.28125 65.839844 113.292969 Z M 65.726562 135.140625 C 65.789062 135.128906 65.789062 135.171875 65.839844 135.179688 C 65.851562 135.253906 65.660156 135.234375 65.726562 135.140625 Z M 65.652344 118.078125 C 65.671875 118.097656 65.621094 118.128906 65.609375 118.117188 C 65.585938 118.097656 65.640625 118.078125 65.652344 118.078125 Z M 65.535156 113.0625 C 65.554688 113.085938 65.503906 113.117188 65.492188 113.105469 C 65.472656 113.085938 65.523438 113.0625 65.535156 113.0625 Z M 65.375 113.90625 C 65.449219 113.917969 65.546875 113.917969 65.535156 114.023438 C 65.429688 114.03125 65.367188 114.011719 65.375 113.90625 Z M 60.113281 134.003906 C 60.125 133.953125 60.1875 133.972656 60.230469 133.960938 C 60.21875 134.003906 60.15625 133.992188 60.113281 134.003906 Z M 60.347656 123.863281 C 60.347656 123.820312 60.390625 123.832031 60.421875 123.820312 C 60.421875 123.863281 60.378906 123.851562 60.347656 123.863281 Z M 60.496094 124.464844 C 60.496094 124.496094 60.453125 124.496094 60.421875 124.507812 C 60.421875 124.464844 60.460938 124.476562 60.496094 124.464844 Z M 60.378906 135.472656 C 60.378906 135.515625 60.335938 135.503906 60.304688 135.515625 C 60.304688 135.484375 60.355469 135.492188 60.378906 135.472656 Z M 60.261719 129.136719 C 60.273438 129.105469 60.316406 129.105469 60.335938 129.09375 C 60.335938 129.136719 60.292969 129.125 60.261719 129.136719 Z M 60.683594 114.472656 C 60.695312 114.441406 60.738281 114.449219 60.757812 114.429688 C 60.757812 114.472656 60.714844 114.460938 60.683594 114.472656 Z M 60.769531 115.804688 C 60.757812 115.847656 60.726562 115.824219 60.726562 115.804688 C 60.738281 115.761719 60.769531 115.785156 60.769531 115.804688 Z M 60.800781 135.210938 C 60.714844 135.222656 60.652344 135.210938 60.609375 135.171875 C 60.609375 135.066406 60.84375 135.078125 60.800781 135.210938 Z M 60.800781 133.617188 C 60.9375 133.523438 60.714844 133.742188 60.800781 133.617188 Z M 61.191406 115.429688 C 61.167969 115.410156 61.210938 115.378906 61.230469 115.386719 C 61.253906 115.410156 61.199219 115.441406 61.191406 115.429688 Z M 61.304688 124.957031 C 61.285156 125.019531 61.273438 124.957031 61.230469 124.957031 C 61.242188 124.902344 61.304688 124.914062 61.304688 124.957031 Z M 61.230469 134.796875 C 61.191406 134.816406 61.160156 134.847656 61.160156 134.796875 C 61.167969 134.742188 61.230469 134.753906 61.230469 134.796875 Z M 61.304688 135.023438 C 61.316406 135.128906 61.285156 135.191406 61.191406 135.179688 C 61.191406 135.109375 61.136719 135.097656 61.148438 135.023438 C 61.199219 135.023438 61.253906 135.023438 61.304688 135.023438 Z M 61.335938 135.253906 C 61.335938 135.273438 61.335938 135.304688 61.335938 135.328125 C 61.316406 135.328125 61.285156 135.328125 61.265625 135.328125 C 61.265625 135.304688 61.265625 135.273438 61.265625 135.253906 C 61.285156 135.253906 61.316406 135.253906 61.335938 135.253906 Z M 61.117188 120.933594 C 61.242188 120.839844 61.019531 121.058594 61.117188 120.933594 Z M 61.117188 135.097656 C 61.136719 135.117188 61.085938 135.148438 61.074219 135.140625 C 61.054688 135.117188 61.105469 135.085938 61.117188 135.097656 Z M 61.074219 135.328125 C 61.09375 135.347656 61.042969 135.378906 61.03125 135.367188 C 61.011719 135.347656 61.0625 135.316406 61.074219 135.328125 Z M 60.988281 121.765625 C 61 121.726562 61.03125 121.746094 61.03125 121.765625 C 61.03125 121.808594 61 121.789062 60.988281 121.765625 Z M 61.410156 117.929688 C 61.390625 117.910156 61.441406 117.878906 61.453125 117.890625 C 61.476562 117.910156 61.433594 117.941406 61.410156 117.929688 Z M 61.496094 130.46875 C 61.515625 130.492188 61.464844 130.511719 61.453125 130.511719 C 61.433594 130.492188 61.484375 130.460938 61.496094 130.46875 Z M 61.421875 135.171875 C 61.441406 135.191406 61.390625 135.222656 61.378906 135.210938 C 61.359375 135.191406 61.410156 135.171875 61.421875 135.171875 Z M 61.726562 135.066406 C 61.726562 135.171875 61.496094 135.160156 61.539062 135.023438 C 61.621094 135.015625 61.6875 135.035156 61.726562 135.066406 Z M 61.726562 134.796875 C 61.75 134.816406 61.695312 134.847656 61.6875 134.835938 C 61.664062 134.816406 61.71875 134.785156 61.726562 134.796875 Z M 61.769531 113.679688 C 61.769531 113.65625 61.769531 113.625 61.769531 113.605469 C 61.84375 113.585938 61.84375 113.65625 61.84375 113.71875 C 61.8125 113.710938 61.8125 113.679688 61.769531 113.679688 Z M 61.84375 134.003906 C 61.84375 134.023438 61.84375 134.054688 61.84375 134.078125 C 61.824219 134.078125 61.792969 134.078125 61.769531 134.078125 C 61.769531 134.054688 61.769531 134.023438 61.769531 134.003906 C 61.792969 134.003906 61.824219 134.003906 61.84375 134.003906 Z M 61.949219 121.320312 C 61.949219 121.265625 61.949219 121.214844 61.949219 121.164062 C 62.035156 121.152344 62.054688 121.195312 62.109375 121.203125 C 62.074219 121.257812 62.054688 121.320312 61.949219 121.320312 Z M 62.148438 125.445312 C 62.148438 125.488281 62.109375 125.476562 62.074219 125.488281 C 62.074219 125.457031 62.117188 125.46875 62.148438 125.445312 Z M 62.191406 121.203125 C 62.320312 121.109375 62.097656 121.328125 62.191406 121.203125 Z M 62.308594 123.476562 C 62.320312 123.496094 62.277344 123.527344 62.265625 123.519531 C 62.246094 123.496094 62.296875 123.464844 62.308594 123.476562 Z M 62.296875 121.996094 C 62.308594 121.953125 62.339844 121.976562 62.339844 121.996094 C 62.339844 122.039062 62.308594 122.015625 62.296875 121.996094 Z M 62.847656 117.441406 C 62.960938 117.296875 62.972656 117.554688 62.847656 117.441406 Z M 62.917969 135.097656 C 62.898438 135.160156 62.886719 135.097656 62.847656 135.097656 C 62.855469 135.046875 62.917969 135.054688 62.917969 135.097656 Z M 62.847656 115.199219 C 62.824219 115.199219 62.792969 115.199219 62.773438 115.199219 C 62.773438 115.167969 62.75 115.160156 62.730469 115.160156 C 62.707031 115.085938 62.898438 115.105469 62.847656 115.199219 Z M 62.761719 126.019531 C 62.730469 126.039062 62.699219 126.0625 62.6875 126.019531 C 62.699219 125.976562 62.761719 125.988281 62.761719 126.019531 Z M 62.992188 128.875 C 62.984375 128.8125 63.035156 128.8125 63.035156 128.761719 C 63.109375 128.78125 63.121094 128.8125 63.066406 128.875 C 63.046875 128.875 63.015625 128.875 62.992188 128.875 Z M 63.574219 131.230469 C 63.574219 131.1875 63.617188 131.199219 63.648438 131.1875 C 63.648438 131.230469 63.605469 131.21875 63.574219 131.230469 Z M 64.144531 118.015625 C 64.121094 117.992188 64.175781 117.960938 64.183594 117.972656 C 64.207031 117.992188 64.164062 118.015625 64.144531 118.015625 Z M 64.226562 130.5 C 64.21875 130.554688 64.183594 130.523438 64.183594 130.5 C 64.195312 130.460938 64.226562 130.480469 64.226562 130.5 Z M 64.882812 132.855469 C 64.902344 132.878906 64.851562 132.910156 64.839844 132.898438 C 64.816406 132.878906 64.871094 132.847656 64.882812 132.855469 Z M 65.1875 113.21875 C 65.207031 113.242188 65.15625 113.273438 65.144531 113.261719 C 65.125 113.242188 65.175781 113.210938 65.1875 113.21875 Z M 65.15625 115.722656 C 65.175781 115.742188 65.125 115.773438 65.113281 115.761719 C 65.09375 115.742188 65.132812 115.722656 65.15625 115.722656 Z M 65.15625 126.289062 C 65.175781 126.3125 65.125 126.34375 65.113281 126.332031 C 65.09375 126.3125 65.132812 126.28125 65.15625 126.289062 Z M 64.839844 130.511719 C 64.871094 130.511719 64.882812 130.492188 64.882812 130.46875 C 64.957031 130.449219 64.933594 130.636719 64.839844 130.585938 C 64.839844 130.5625 64.839844 130.53125 64.839844 130.511719 Z M 64.839844 131.949219 C 64.710938 131.980469 64.722656 131.886719 64.648438 131.867188 C 64.648438 131.785156 64.746094 131.785156 64.839844 131.792969 C 64.839844 131.847656 64.839844 131.898438 64.839844 131.949219 Z M 64.765625 129.898438 C 64.890625 129.804688 64.671875 130.023438 64.765625 129.898438 Z M 64.765625 112.199219 C 64.785156 112.21875 64.734375 112.238281 64.722656 112.238281 C 64.703125 112.21875 64.753906 112.1875 64.765625 112.199219 Z M 64.691406 122.757812 C 64.691406 122.859375 64.574219 122.882812 64.535156 122.828125 C 64.542969 122.765625 64.605469 122.746094 64.691406 122.757812 Z M 64.605469 125.457031 C 64.605469 125.488281 64.566406 125.488281 64.535156 125.5 C 64.535156 125.457031 64.574219 125.46875 64.605469 125.457031 Z M 64.417969 121.953125 C 64.417969 121.921875 64.460938 121.933594 64.492188 121.914062 C 64.492188 121.953125 64.449219 121.945312 64.417969 121.953125 Z M 64.449219 121.765625 C 64.4375 121.820312 64.375 121.808594 64.375 121.765625 C 64.394531 121.714844 64.417969 121.777344 64.449219 121.765625 Z M 64.101562 117.710938 C 64.207031 117.679688 64.183594 117.785156 64.257812 117.785156 C 64.238281 117.867188 64.070312 117.796875 64.101562 117.710938 Z M 63.996094 119.035156 C 63.984375 119.078125 63.921875 119.066406 63.921875 119.035156 C 63.933594 118.984375 63.953125 119.035156 63.996094 119.035156 Z M 63.878906 123.363281 C 64.058594 123.394531 63.847656 123.589844 63.878906 123.363281 Z M 63.648438 115.417969 C 63.648438 115.398438 63.648438 115.367188 63.648438 115.347656 C 63.722656 115.335938 63.773438 115.355469 63.761719 115.417969 C 63.722656 115.417969 63.691406 115.417969 63.648438 115.417969 Z M 59.691406 113.03125 C 59.683594 113.074219 59.652344 113.054688 59.652344 113.03125 C 59.660156 112.992188 59.691406 113.011719 59.691406 113.03125 Z M 57.457031 129.96875 C 57.574219 129.835938 57.59375 130.085938 57.457031 129.96875 Z M 57.65625 129.09375 C 57.71875 129.082031 57.71875 129.136719 57.773438 129.136719 C 57.785156 129.207031 57.59375 129.199219 57.65625 129.09375 Z M 57.847656 129.0625 C 57.859375 129.011719 57.921875 129.019531 57.921875 129.0625 C 57.910156 129.113281 57.890625 129.0625 57.847656 129.0625 Z M 58.035156 128.644531 C 58.015625 128.625 58.070312 128.59375 58.078125 128.605469 C 58.101562 128.625 58.046875 128.65625 58.035156 128.644531 Z M 58.226562 130.699219 C 58.207031 130.679688 58.257812 130.648438 58.269531 130.65625 C 58.289062 130.679688 58.238281 130.710938 58.226562 130.699219 Z M 58.238281 118.996094 C 58.246094 118.941406 58.3125 118.953125 58.3125 118.996094 C 58.269531 119.015625 58.238281 119.046875 58.238281 118.996094 Z M 58.417969 123.019531 C 58.394531 123.019531 58.363281 123.019531 58.34375 123.019531 C 58.34375 122.996094 58.34375 122.964844 58.34375 122.945312 C 58.375 122.945312 58.394531 122.945312 58.417969 122.945312 C 58.417969 122.964844 58.417969 122.996094 58.417969 123.019531 Z M 58.5 122.984375 C 58.5 122.945312 58.53125 122.964844 58.542969 122.984375 C 58.53125 123.027344 58.5 123.007812 58.5 122.984375 Z M 58.691406 130.386719 C 58.703125 130.34375 58.765625 130.355469 58.765625 130.386719 C 58.734375 130.40625 58.703125 130.429688 58.691406 130.386719 Z M 58.808594 132.523438 C 58.808594 132.480469 58.847656 132.492188 58.878906 132.480469 C 58.878906 132.511719 58.839844 132.511719 58.808594 132.523438 Z M 58.847656 131.03125 C 58.765625 131.023438 58.839844 130.855469 58.921875 130.875 C 58.964844 131 58.871094 130.96875 58.847656 131.03125 Z M 58.710938 113.667969 L 59.640625 113.15625 C 60.832031 112.667969 62.097656 111.90625 63.753906 112.175781 C 63.574219 112.207031 63.636719 112.1875 63.445312 112.28125 C 63.425781 112.28125 63.40625 112.292969 63.382812 112.304688 C 62.253906 112.761719 61.601562 112.730469 60.726562 113 C 60.738281 113.023438 60.695312 113.042969 60.683594 113.03125 C 60.671875 113.023438 60.671875 113.023438 60.683594 113.011719 C 60.453125 113.085938 60.210938 113.179688 59.933594 113.304688 C 59.523438 113.492188 59.671875 113.304688 59.007812 113.617188 Z M 59.925781 115.847656 C 59.902344 115.898438 59.882812 115.835938 59.851562 115.847656 C 59.863281 115.792969 59.925781 115.804688 59.925781 115.847656 Z M 59.765625 115.730469 C 59.765625 115.691406 59.808594 115.699219 59.839844 115.691406 C 59.839844 115.730469 59.796875 115.722656 59.765625 115.730469 Z M 59.722656 132.324219 C 59.894531 132.347656 59.691406 132.554688 59.722656 132.324219 Z M 59.113281 117.742188 C 59.113281 117.773438 59.070312 117.773438 59.039062 117.785156 C 59.039062 117.742188 59.082031 117.753906 59.113281 117.742188 Z M 59.113281 125.832031 C 58.984375 125.789062 59.15625 125.726562 59.230469 125.757812 C 59.21875 125.8125 59.113281 125.769531 59.113281 125.832031 Z M 59.261719 121.164062 C 59.269531 121.121094 59.300781 121.140625 59.300781 121.164062 C 59.300781 121.203125 59.269531 121.183594 59.261719 121.164062 Z M 59.300781 129.363281 C 59.3125 129.324219 59.34375 129.34375 59.34375 129.363281 C 59.335938 129.40625 59.300781 129.386719 59.300781 129.363281 Z M 59.34375 123.933594 C 59.367188 123.933594 59.398438 123.933594 59.417969 123.933594 C 59.417969 123.957031 59.417969 123.988281 59.417969 124.007812 C 59.398438 124.007812 59.367188 124.007812 59.34375 124.007812 C 59.34375 123.988281 59.34375 123.957031 59.34375 123.933594 Z M 59.417969 132.253906 C 59.398438 132.230469 59.449219 132.199219 59.460938 132.210938 C 59.480469 132.230469 59.429688 132.261719 59.417969 132.253906 Z M 69.878906 123.289062 C 69.890625 123.238281 69.953125 123.246094 69.953125 123.289062 C 69.933594 123.339844 69.921875 123.289062 69.878906 123.289062 Z M 70.144531 124.925781 C 70.164062 124.945312 70.113281 124.964844 70.101562 124.964844 C 70.082031 124.945312 70.132812 124.914062 70.144531 124.925781 Z M 70.175781 131.835938 C 70.152344 131.835938 70.121094 131.835938 70.101562 131.835938 C 70.101562 131.792969 70.101562 131.761719 70.101562 131.722656 C 70.144531 131.722656 70.175781 131.722656 70.21875 131.722656 C 70.226562 131.785156 70.1875 131.785156 70.175781 131.835938 Z M 70.257812 123.589844 C 70.28125 123.675781 70.226562 123.695312 70.21875 123.746094 C 70.113281 123.738281 70.132812 123.558594 70.257812 123.589844 Z M 70.257812 131.949219 C 70.238281 131.929688 70.292969 131.898438 70.300781 131.910156 C 70.3125 131.929688 70.269531 131.960938 70.257812 131.949219 Z M 70.292969 125.300781 C 70.300781 125.257812 70.332031 125.28125 70.332031 125.300781 C 70.332031 125.34375 70.300781 125.320312 70.292969 125.300781 Z M 70.175781 114.542969 C 70.226562 114.605469 70.34375 114.597656 70.332031 114.699219 C 70.25 114.792969 70.144531 114.699219 70.175781 114.542969 Z M 70.609375 115.992188 C 70.585938 116.054688 70.574219 115.992188 70.535156 115.992188 C 70.542969 115.941406 70.609375 115.949219 70.609375 115.992188 Z M 70.40625 120.589844 C 70.417969 120.546875 70.449219 120.566406 70.449219 120.589844 C 70.4375 120.628906 70.417969 120.609375 70.40625 120.589844 Z M 70.492188 130.46875 C 70.503906 130.417969 70.566406 130.429688 70.566406 130.46875 C 70.554688 130.523438 70.535156 130.460938 70.492188 130.46875 Z M 70.597656 125.414062 C 70.574219 125.414062 70.542969 125.414062 70.523438 125.414062 C 70.535156 125.382812 70.511719 125.382812 70.480469 125.375 C 70.46875 125.300781 70.660156 125.320312 70.597656 125.414062 Z M 70.722656 128.074219 C 70.859375 128.1875 70.609375 128.199219 70.722656 128.074219 Z M 70.640625 123.933594 C 70.734375 123.957031 70.777344 124.007812 70.796875 124.089844 C 70.746094 124.039062 70.628906 124.050781 70.640625 123.933594 Z M 71.03125 114.542969 C 71.050781 114.566406 70.996094 114.597656 70.988281 114.585938 C 70.964844 114.574219 71.019531 114.542969 71.03125 114.542969 Z M 70.871094 125.675781 C 70.871094 125.570312 70.988281 125.550781 71.03125 125.601562 C 71.019531 125.675781 70.964844 125.695312 70.871094 125.675781 Z M 71.0625 133.085938 C 71.070312 133.054688 71.113281 133.054688 71.136719 133.042969 C 71.136719 133.085938 71.09375 133.074219 71.0625 133.085938 Z M 71.019531 126.25 C 71.09375 126.25 71.101562 126.300781 71.175781 126.289062 C 71.199219 126.351562 70.964844 126.351562 71.019531 126.25 Z M 71.21875 119.910156 C 71.199219 119.890625 71.25 119.859375 71.261719 119.871094 C 71.28125 119.890625 71.230469 119.921875 71.21875 119.910156 Z M 71.292969 118.421875 C 71.304688 118.378906 71.335938 118.398438 71.335938 118.421875 C 71.324219 118.472656 71.292969 118.453125 71.292969 118.421875 Z M 71.292969 116.867188 C 71.273438 116.847656 71.324219 116.816406 71.335938 116.828125 C 71.355469 116.847656 71.304688 116.878906 71.292969 116.867188 Z M 71.609375 128.675781 C 71.609375 128.636719 71.640625 128.65625 71.652344 128.675781 C 71.640625 128.71875 71.609375 128.699219 71.609375 128.675781 Z M 71.945312 123.175781 C 71.925781 123.152344 71.980469 123.121094 71.988281 123.132812 C 72.011719 123.152344 71.957031 123.183594 71.945312 123.175781 Z M 71.90625 122.570312 C 71.9375 122.453125 71.988281 122.601562 72.0625 122.570312 C 72.03125 122.695312 71.980469 122.601562 71.90625 122.570312 Z M 72.019531 115.386719 C 72 115.367188 72.050781 115.335938 72.0625 115.347656 C 72.085938 115.367188 72.042969 115.398438 72.019531 115.386719 Z M 72.179688 122.945312 C 72.15625 122.921875 72.210938 122.902344 72.222656 122.902344 C 72.242188 122.921875 72.191406 122.953125 72.179688 122.945312 Z M 72.296875 123.519531 C 72.304688 123.464844 72.367188 123.476562 72.367188 123.519531 C 72.335938 123.539062 72.304688 123.558594 72.296875 123.519531 Z M 72.453125 119.796875 C 72.410156 119.796875 72.378906 119.796875 72.335938 119.796875 C 72.328125 119.734375 72.367188 119.722656 72.378906 119.683594 C 72.402344 119.683594 72.433594 119.683594 72.453125 119.683594 C 72.453125 119.722656 72.453125 119.753906 72.453125 119.796875 Z M 72.410156 115.230469 C 72.421875 115.191406 72.515625 115.199219 72.527344 115.230469 C 72.558594 115.316406 72.390625 115.324219 72.410156 115.230469 Z M 72.527344 123.894531 C 72.613281 123.882812 72.652344 123.925781 72.644531 124.007812 C 72.558594 124.019531 72.515625 123.976562 72.527344 123.894531 Z M 72.683594 115.960938 C 72.664062 115.941406 72.707031 115.910156 72.726562 115.917969 C 72.75 115.941406 72.695312 115.972656 72.683594 115.960938 Z M 72.71875 124.164062 C 72.800781 124.144531 72.769531 124.238281 72.832031 124.238281 C 72.824219 124.332031 72.652344 124.269531 72.71875 124.164062 Z M 72.980469 125.757812 C 72.992188 125.71875 73.023438 125.738281 73.023438 125.757812 C 73.023438 125.800781 72.992188 125.78125 72.980469 125.757812 Z M 73.140625 115.804688 C 73.117188 115.804688 73.085938 115.804688 73.066406 115.804688 C 73.066406 115.785156 73.066406 115.753906 73.066406 115.730469 C 73.085938 115.730469 73.117188 115.730469 73.140625 115.730469 C 73.140625 115.753906 73.140625 115.785156 73.140625 115.804688 Z M 73.222656 115.605469 C 73.265625 115.605469 73.296875 115.605469 73.339844 115.605469 C 73.339844 115.660156 73.339844 115.710938 73.339844 115.761719 C 73.203125 115.804688 73.210938 115.710938 73.222656 115.605469 Z M 73.296875 118.535156 C 73.277344 118.523438 73.328125 118.492188 73.339844 118.492188 C 73.359375 118.515625 73.308594 118.546875 73.296875 118.535156 Z M 73.71875 131.074219 C 73.6875 131.09375 73.65625 131.117188 73.644531 131.074219 C 73.65625 131.023438 73.71875 131.03125 73.71875 131.074219 Z M 73.644531 116.910156 C 73.632812 116.953125 73.601562 116.929688 73.601562 116.910156 C 73.613281 116.867188 73.644531 116.890625 73.644531 116.910156 Z M 73.445312 127.925781 C 73.433594 127.84375 73.507812 127.855469 73.5625 127.855469 C 73.539062 127.894531 73.507812 127.925781 73.445312 127.925781 Z M 73.527344 122.984375 C 73.75 123.039062 73.390625 123.164062 73.527344 122.984375 Z M 73.601562 121.765625 C 73.582031 121.746094 73.632812 121.726562 73.644531 121.726562 C 73.667969 121.746094 73.613281 121.777344 73.601562 121.765625 Z M 73.632812 132.324219 C 73.71875 132.316406 73.738281 132.355469 73.792969 132.367188 C 73.792969 132.472656 73.632812 132.441406 73.632812 132.324219 Z M 73.71875 127.96875 C 73.71875 127.925781 73.761719 127.9375 73.792969 127.925781 C 73.792969 127.957031 73.75 127.949219 73.71875 127.96875 Z M 73.910156 125.1875 C 73.910156 125.15625 73.960938 125.15625 73.980469 125.144531 C 73.980469 125.1875 73.941406 125.175781 73.910156 125.1875 Z M 74.605469 118.878906 C 74.6875 118.871094 74.679688 118.933594 74.679688 118.996094 C 74.648438 118.984375 74.648438 118.953125 74.605469 118.953125 C 74.605469 118.933594 74.605469 118.902344 74.605469 118.878906 Z M 74.574219 117.398438 C 74.5625 117.441406 74.53125 117.421875 74.53125 117.398438 C 74.53125 117.359375 74.5625 117.378906 74.574219 117.398438 Z M 74.171875 124.195312 C 74.160156 124.246094 74.097656 124.238281 74.097656 124.195312 C 74.121094 124.144531 74.140625 124.207031 74.171875 124.195312 Z M 74.097656 131.375 C 74.109375 131.335938 74.140625 131.355469 74.140625 131.375 C 74.128906 131.417969 74.097656 131.398438 74.097656 131.375 Z M 74.097656 125.988281 C 74.085938 125.90625 74.160156 125.914062 74.214844 125.914062 C 74.191406 125.957031 74.160156 125.988281 74.097656 125.988281 Z M 74.183594 124.839844 C 74.351562 124.871094 74.152344 125.070312 74.183594 124.839844 Z M 74.371094 122.496094 C 74.371094 122.515625 74.371094 122.546875 74.371094 122.570312 C 74.183594 122.601562 74.296875 122.359375 74.371094 122.496094 Z M 74.402344 131.34375 C 74.371094 131.367188 74.339844 131.386719 74.332031 131.34375 C 74.339844 131.292969 74.414062 131.304688 74.402344 131.34375 Z M 74.605469 122.902344 C 74.46875 122.777344 74.507812 122.609375 74.445312 122.371094 C 74.699219 122.339844 74.761719 122.789062 74.605469 122.902344 Z M 74.5625 126.789062 C 74.5625 126.75 74.605469 126.757812 74.636719 126.75 C 74.636719 126.78125 74.59375 126.769531 74.5625 126.789062 Z M 74.679688 129.105469 C 74.65625 129.082031 74.710938 129.050781 74.71875 129.0625 C 74.742188 129.082031 74.6875 129.113281 74.679688 129.105469 Z M 75.175781 124.351562 C 75.152344 124.351562 75.121094 124.351562 75.101562 124.351562 C 75.101562 124.332031 75.101562 124.300781 75.101562 124.277344 C 75.121094 124.277344 75.152344 124.277344 75.175781 124.277344 C 75.175781 124.300781 75.175781 124.332031 75.175781 124.351562 Z M 75.332031 122.039062 C 75.3125 122.015625 75.363281 121.984375 75.375 121.996094 C 75.394531 122.015625 75.34375 122.046875 75.332031 122.039062 Z M 75.40625 128 C 75.386719 127.980469 75.4375 127.949219 75.449219 127.957031 C 75.46875 127.980469 75.417969 128.011719 75.40625 128 Z M 75.480469 123.777344 C 75.46875 123.832031 75.449219 123.777344 75.40625 123.777344 C 75.417969 123.738281 75.492188 123.746094 75.480469 123.777344 Z M 75.492188 118.003906 C 75.5 117.953125 75.5625 117.960938 75.5625 118.003906 C 75.542969 118.066406 75.53125 118.003906 75.492188 118.003906 Z M 75.796875 121.652344 C 75.808594 121.609375 75.871094 121.621094 75.871094 121.652344 C 75.839844 121.671875 75.808594 121.695312 75.796875 121.652344 Z M 76.027344 126.820312 C 76.027344 126.78125 76.058594 126.800781 76.070312 126.820312 C 76.058594 126.863281 76.027344 126.84375 76.027344 126.820312 Z M 76.175781 121.808594 C 76.1875 121.757812 76.25 121.765625 76.25 121.808594 C 76.238281 121.859375 76.21875 121.796875 76.175781 121.808594 Z M 76.640625 121.578125 C 76.535156 121.464844 76.757812 121.683594 76.640625 121.578125 Z M 76.640625 121.578125 " fill-opacity="1" fill-rule="nonzero"/></g><g clip-path="url(#6cecfd592a)"><path fill="#393536" d="M 97.046875 126.761719 C 97.046875 126.761719 97.046875 150.003906 63.796875 150.003906 C 30.546875 150.003906 27.988281 126.761719 27.988281 126.761719 L 27.988281 84.246094 C 27.988281 84.246094 27.136719 55.335938 60.386719 55.335938 C 99.890625 55.335938 97.046875 84.246094 97.046875 84.246094 L 97.046875 126.761719 " fill-opacity="1" fill-rule="nonzero"/></g><path fill="#ffffff" d="M 97.070312 96.152344 C 97.070312 96.152344 84.609375 98.703125 62.5625 98.703125 C 40.515625 98.703125 28.011719 96.152344 28.011719 96.152344 L 28.011719 93.601562 C 28.011719 93.601562 41.835938 96.152344 62.5625 96.152344 C 83.289062 96.152344 97.070312 93.601562 97.070312 93.601562 L 97.070312 96.152344 " fill-opacity="1" fill-rule="nonzero"/><path fill="#ffffff" d="M 63.25 97.570312 L 61.828125 97.570312 L 61.828125 55.382812 L 63.25 55.382812 L 63.25 97.570312 " fill-opacity="1" fill-rule="nonzero"/><path fill="#ffffff" d="M 66.589844 83.28125 C 66.589844 85.511719 64.777344 87.316406 62.539062 87.316406 C 60.304688 87.316406 58.492188 85.511719 58.492188 83.28125 L 58.492188 69.675781 C 58.492188 67.445312 60.304688 65.636719 62.539062 65.636719 C 64.777344 65.636719 66.589844 67.445312 66.589844 69.675781 L 66.589844 83.28125 " fill-opacity="1" fill-rule="nonzero"/><path fill="#393536" d="M 66.246094 53.398438 L 58.839844 53.398438 L 58.839844 41.273438 L 66.246094 41.273438 L 66.246094 53.398438 " fill-opacity="1" fill-rule="nonzero"/><path fill="#393536" d="M 67.949219 45.25 C 67.949219 45.996094 67.34375 46.597656 66.597656 46.597656 L 58.484375 46.597656 C 57.738281 46.597656 57.132812 45.996094 57.132812 45.25 C 57.132812 44.507812 57.738281 43.902344 58.484375 43.902344 L 66.597656 43.902344 C 67.34375 43.902344 67.949219 44.507812 67.949219 45.25 " fill-opacity="1" fill-rule="nonzero"/><path fill="#393536" d="M 67.949219 49.644531 C 67.949219 50.386719 67.34375 50.988281 66.597656 50.988281 L 58.484375 50.988281 C 57.738281 50.988281 57.132812 50.386719 57.132812 49.644531 C 57.132812 48.902344 57.738281 48.296875 58.484375 48.296875 L 66.597656 48.296875 C 67.34375 48.296875 67.949219 48.902344 67.949219 49.644531 " fill-opacity="1" fill-rule="nonzero"/><path fill="#393536" d="M 67.949219 54.035156 C 67.949219 54.78125 67.34375 55.382812 66.597656 55.382812 L 58.484375 55.382812 C 57.738281 55.382812 57.132812 54.78125 57.132812 54.035156 C 57.132812 53.292969 57.738281 52.691406 58.484375 52.691406 L 66.597656 52.691406 C 67.34375 52.691406 67.949219 53.292969 67.949219 54.035156 " fill-opacity="1" fill-rule="nonzero"/><g clip-path="url(#c4efc2cad9)"><path fill="#393536" d="M 112.789062 95.515625 C 108.953125 95.515625 105.996094 94.414062 104 92.242188 C 101.382812 89.394531 101.457031 85.707031 101.492188 85.035156 L 101.636719 25.035156 C 101.597656 23.898438 100.6875 3.820312 81.527344 3.820312 C 74.996094 3.820312 70.207031 5.480469 67.289062 8.75 C 63.476562 13.015625 64.101562 18.769531 64.109375 18.828125 C 64.117188 18.898438 64.121094 18.980469 64.121094 19.058594 L 64.121094 41.273438 C 64.121094 42.328125 63.261719 43.183594 62.203125 43.183594 C 61.144531 43.183594 60.285156 42.328125 60.285156 41.273438 L 60.285156 19.160156 C 60.183594 18.105469 59.746094 11.484375 64.386719 6.246094 C 68.058594 2.097656 73.828125 -0.00390625 81.527344 -0.00390625 C 93.601562 -0.00390625 99.496094 6.859375 102.3125 12.617188 C 105.285156 18.699219 105.464844 24.710938 105.472656 24.960938 L 105.472656 25.011719 L 105.328125 85.097656 C 105.328125 85.152344 105.328125 85.207031 105.324219 85.261719 C 105.320312 85.273438 105.15625 87.867188 106.851562 89.683594 C 108.09375 91.015625 110.089844 91.6875 112.789062 91.6875 C 114.476562 91.6875 115.792969 91.1875 116.820312 90.160156 C 119.25 87.722656 119.253906 83.175781 119.253906 83.128906 C 119.25 82.074219 120.101562 81.214844 121.15625 81.199219 L 121.171875 81.199219 C 122.222656 81.199219 123.082031 82.042969 123.09375 83.09375 C 123.09375 83.34375 123.117188 89.253906 119.558594 92.839844 C 117.800781 94.613281 115.519531 95.515625 112.789062 95.515625 " fill-opacity="1" fill-rule="nonzero"/></g></svg>